<svg width="463" height="163" viewBox="0 0 463 163" fill="none" xmlns="http://www.w3.org/2000/svg">
<path d="M209.982 68.1668C213.042 67.4986 219.381 67.0532 225.283 67.0532C232.497 67.0532 236.978 67.8327 240.803 70.0601C244.519 72.0647 247.033 75.7398 247.033 80.6399C247.033 85.3173 244.301 89.7719 238.399 91.9993V92.222C244.41 93.7811 248.782 98.4585 248.782 105.363C248.782 110.263 246.596 114.05 243.317 116.723C239.492 119.841 233.153 121.623 222.66 121.623C216.868 121.623 212.496 121.177 209.873 120.843V68.1668H209.982ZM221.677 88.5469H225.502C231.732 88.5469 235.011 85.8741 235.011 81.9763C235.011 77.9671 231.95 75.7398 226.595 75.7398C223.972 75.7398 222.551 75.9625 221.567 76.0739V88.5469H221.677ZM221.677 112.157C222.77 112.379 224.19 112.379 226.267 112.379C231.622 112.379 236.431 110.263 236.431 104.584C236.431 99.2381 231.732 97.1221 225.83 97.1221H221.786V112.157H221.677Z" fill="#737373"/>
<path d="M256.87 68.1668C260.695 67.4986 266.269 67.0532 272.608 67.0532C280.368 67.0532 285.833 68.2782 289.549 71.2851C292.718 73.8465 294.358 77.5216 294.358 82.5331C294.358 89.3265 289.658 94.0039 285.068 95.6744V95.8971C288.674 97.3449 290.751 100.909 292.063 105.809C293.702 111.823 295.232 118.839 296.325 120.843H284.193C283.428 119.284 282.117 115.052 280.587 108.37C279.166 101.688 276.98 99.9063 272.062 99.7949H268.564V120.732H256.87V68.1668ZM268.673 91.1083H273.264C279.166 91.1083 282.663 88.1014 282.663 83.424C282.663 78.5239 279.384 76.0739 273.92 75.9625C271.078 75.9625 269.438 76.1852 268.564 76.408V91.1083H268.673Z" fill="#737373"/>
<path d="M314.905 67.3873V120.732H303.101V67.3873H314.905Z" fill="#737373"/>
<path d="M373.05 93.5584C373.05 111.043 362.667 121.623 347.366 121.623C331.846 121.623 322.665 109.595 322.665 94.4493C322.665 78.5239 332.72 66.4963 348.131 66.4963C364.307 66.4963 373.05 78.7467 373.05 93.5584ZM335.234 94.2266C335.234 104.695 340.043 112.045 348.022 112.045C356 112.045 360.591 104.361 360.591 94.0039C360.591 84.4263 356.109 76.1852 348.022 76.1852C339.934 76.0739 335.234 83.8695 335.234 94.2266Z" fill="#737373"/>
<path d="M380.919 67.3873H412.943V77.2989H392.723V89.5492H411.522V99.3495H392.723V120.843H380.919V67.3873Z" fill="#737373"/>
<path d="M433.928 120.843V98.904L417.424 67.3873H430.977L436.332 80.1944C437.971 83.9809 439.064 86.8764 440.376 90.4401H440.485C441.687 87.0991 442.89 83.9809 444.42 80.1944L449.666 67.3873H463L445.731 98.4585V120.732H433.928V120.843Z" fill="#737373"/>
<path d="M111.179 74.6261C106.042 57.587 93.2549 37.5411 92.927 36.9842C89.7575 32.6409 86.5879 28.7431 83.4184 25.068C72.3796 12.9291 47.2417 -9.4556 21.776 4.35384C3.7423 14.1541 0.135573 35.091 0.682048 52.7983C1.22852 67.9441 5.05385 82.7558 11.6116 96.3426C14.7811 102.913 18.7157 110.597 22.7596 116.5C37.4052 136.434 53.5808 149.242 62.4337 154.253C69.7565 158.374 76.2049 161.046 81.8882 162.494C83.3091 162.828 84.7299 162.16 85.3857 160.712C92.5992 143.785 86.6972 113.827 82.9812 98.904C82.3254 96.3426 85.6043 94.7834 87.2437 96.8994C99.0476 112.713 102.217 137.771 102.873 154.03C102.982 156.703 106.261 157.928 108.01 155.812C108.775 154.921 109.431 153.919 110.086 152.805C113.693 146.346 116.535 137.325 117.846 124.852C118.502 115.386 117.628 96.4539 111.179 74.6261Z" fill="#48AE4D"/>
<path d="M174.789 4.35384C149.323 -9.4556 124.185 12.9291 113.147 25.068C109.977 28.7431 106.807 32.6409 103.638 36.9842C108.01 44.4458 115.988 58.8121 119.923 71.9533C126.59 94.338 127.792 114.495 126.59 125.855C125.825 133.093 124.623 139.441 122.874 145.121C122.874 145.121 122.546 146.123 122.109 147.46C122.109 147.46 122.109 147.46 122.109 147.571C121.672 148.796 121.125 150.355 120.579 151.58C119.486 154.03 120.907 156.926 123.42 156.926C125.934 156.926 132.929 155.478 140.798 149.91C149.87 143.339 162.329 132.091 173.805 116.5C177.849 110.486 181.784 102.913 184.953 96.3426C191.402 82.7558 195.336 67.9441 195.883 52.7983C196.429 35.091 192.823 14.0427 174.789 4.35384Z" fill="#48AE4D"/>
<path d="M111.179 74.6261C106.042 57.587 93.2549 37.5411 92.927 36.9842C89.7575 32.6409 86.5879 28.7431 83.4184 25.068C72.3796 12.9291 47.2417 -9.4556 21.776 4.35384C3.7423 14.1541 0.135573 35.091 0.682048 52.7983C1.22852 67.9441 5.05385 82.7558 11.6116 96.3426C14.7811 102.913 18.7157 110.597 22.7596 116.5C37.4052 136.434 53.5808 149.242 62.4337 154.253C69.7565 158.374 76.2049 161.046 81.8882 162.494C83.3091 162.828 84.7299 162.16 85.3857 160.712C92.5992 143.785 86.6972 113.827 82.9812 98.904C82.3254 96.3426 85.6043 94.7834 87.2437 96.8994C99.0476 112.713 102.217 137.771 102.873 154.03C102.982 156.703 106.261 157.928 108.01 155.812C108.775 154.921 109.431 153.919 110.086 152.805C113.693 146.346 116.535 137.325 117.846 124.852C118.502 115.386 117.628 96.4539 111.179 74.6261Z" fill="#48AE4D"/>
<path d="M174.789 4.35384C149.323 -9.4556 124.185 12.9291 113.147 25.068C109.977 28.7431 106.807 32.6409 103.638 36.9842C108.01 44.4458 115.988 58.8121 119.923 71.9533C126.59 94.338 127.792 114.495 126.59 125.855C125.825 133.093 124.623 139.441 122.874 145.121C122.874 145.121 122.546 146.123 122.109 147.46C122.109 147.46 122.109 147.46 122.109 147.571C121.672 148.796 121.125 150.355 120.579 151.58C119.486 154.03 120.907 156.926 123.42 156.926C125.934 156.926 132.929 155.478 140.798 149.91C149.87 143.339 162.329 132.091 173.805 116.5C177.849 110.486 181.784 102.913 184.953 96.3426C191.402 82.7558 195.336 67.9441 195.883 52.7983C196.429 35.091 192.823 14.0427 174.789 4.35384Z" fill="#248937"/>
<path d="M214.354 148.462L211.621 156.369H209.982L218.07 133.65H219.6L227.688 156.369H226.048L223.207 148.462H214.354ZM222.77 147.126L220.037 139.553C219.491 137.994 219.163 136.88 218.835 135.544H218.726C218.398 136.88 218.07 137.994 217.523 139.441L214.791 147.126H222.77Z" fill="#48AE4D"/>
<path d="M231.076 133.65H232.606V155.033H242.552V156.369H231.076V133.65Z" fill="#48AE4D"/>
<path d="M247.142 156.369L241.24 133.65H242.88L246.159 146.457C246.924 149.353 247.58 152.137 248.017 154.253H248.126C248.454 152.137 249.328 149.464 250.203 146.457L253.919 133.65H255.449L258.728 146.346C259.493 149.13 260.148 151.914 260.586 154.253H260.695C261.241 151.803 261.897 149.353 262.772 146.457L266.378 133.65H268.018L261.351 156.369H259.821L256.432 143.228C255.558 139.887 255.012 137.66 254.684 135.544H254.574C254.246 137.66 253.591 139.887 252.607 143.228L248.782 156.369H247.142Z" fill="#48AE4D"/>
<path d="M271.406 148.462L268.673 156.369H267.034L275.122 133.65H276.652L284.74 156.369H283.1L280.259 148.462H271.406ZM279.712 147.126L276.98 139.553C276.433 137.994 276.105 136.88 275.778 135.544C275.45 136.88 275.122 137.994 274.575 139.441L271.843 147.126H279.712Z" fill="#48AE4D"/>
<path d="M290.751 156.369V146.569L283.647 133.65H285.396L289.112 140.444C290.095 142.226 290.86 143.673 291.625 145.344H291.735C292.39 143.785 293.374 142.226 294.358 140.444L298.183 133.65H299.932L292.39 146.569V156.369H290.751Z" fill="#48AE4D"/>
<path d="M301.353 153.919C302.664 154.81 304.413 155.367 306.271 155.367C309.659 155.367 311.626 153.474 311.626 150.689C311.626 148.128 310.315 146.68 307.145 145.344C303.539 144.007 301.353 142.114 301.353 139.107C301.353 135.766 304.085 133.316 307.801 133.316C309.878 133.316 311.517 133.873 312.282 134.43L311.626 135.766C310.971 135.321 309.55 134.653 307.692 134.653C304.085 134.653 302.883 136.991 302.883 138.773C302.883 141.335 304.304 142.56 307.473 143.896C311.189 145.455 313.157 147.126 313.157 150.578C313.157 153.919 310.861 156.815 306.052 156.815C304.085 156.815 301.899 156.146 300.697 155.255L301.353 153.919Z" fill="#48AE4D"/>
<path d="M327.256 134.987H319.933V133.65H336.108V134.987H328.786V156.369H327.256V134.987Z" fill="#48AE4D"/>
<path d="M355.235 144.787C355.235 152.805 350.426 156.815 345.289 156.815C339.824 156.815 335.562 152.36 335.562 145.344C335.562 137.882 340.043 133.316 345.617 133.316C351.191 133.316 355.235 137.771 355.235 144.787ZM337.201 145.232C337.201 150.355 340.152 155.478 345.399 155.478C350.645 155.478 353.705 150.578 353.705 144.898C353.705 140.11 351.082 134.653 345.508 134.653C339.824 134.653 337.201 139.887 337.201 145.232Z" fill="#48AE4D"/>
<path d="M375.236 155.367C374.143 155.812 371.739 156.592 368.788 156.592C365.837 156.592 363.104 155.812 360.918 153.585C359.06 151.803 357.858 148.685 357.858 145.01C357.858 138.662 361.902 133.316 369.553 133.316C371.957 133.316 373.925 133.873 374.799 134.319L374.252 135.655C373.05 135.098 371.629 134.653 369.443 134.653C363.323 134.653 359.498 138.773 359.498 144.898C359.498 151.358 363.214 155.144 369.116 155.144C371.411 155.144 372.941 154.81 373.815 154.365V146.346H368.678V145.01H375.455V155.367H375.236Z" fill="#48AE4D"/>
<path d="M390.319 145.121H381.357V155.033H391.302V156.369H379.717V133.65H390.756V134.987H381.247V143.673H390.21V145.121H390.319Z" fill="#48AE4D"/>
<path d="M399.5 134.987H392.177V133.65H408.352V134.987H401.03V156.369H399.5V134.987Z" fill="#48AE4D"/>
<path d="M412.287 133.65V143.673H424.637V133.65H426.168V156.369H424.637V145.01H412.287V156.369H410.757V133.65H412.287Z" fill="#48AE4D"/>
<path d="M442.125 145.121H433.162V155.033H443.108V156.369H431.523V133.65H442.562V134.987H433.162V143.673H442.125V145.121Z" fill="#48AE4D"/>
<path d="M447.043 133.984C448.354 133.65 450.322 133.539 451.852 133.539C454.803 133.539 456.552 134.207 457.863 135.432C458.847 136.323 459.393 137.882 459.393 139.441C459.393 142.448 457.645 144.453 455.021 145.344V145.455C456.77 146.012 457.972 147.794 458.519 150.244C459.284 153.808 459.721 155.478 460.158 156.369H458.519C458.191 155.701 457.645 153.696 457.098 150.801C456.442 147.571 455.021 146.012 452.07 145.901H448.573V156.369H447.043V133.984ZM448.573 144.676H452.07C455.568 144.676 457.754 142.671 457.754 139.664C457.754 136.212 455.24 134.764 451.743 134.764C450.212 134.764 449.12 134.875 448.573 135.098V144.676Z" fill="#48AE4D"/>
</svg>
